<?xml version="1.0" encoding="UTF-8"?>
<svg width="92px" height="37px" viewBox="0 0 92 37" version="1.1" xmlns="http://www.w3.org/2000/svg" xmlns:xlink="http://www.w3.org/1999/xlink">
    <title>FCF856EF-885E-4490-AC8A-F4799BA7E1F0</title>
    <defs>
        <linearGradient x1="90.4588745%" y1="86.3496693%" x2="16.7368142%" y2="20.5334515%" id="linearGradient-1">
            <stop stop-color="#FFE2C5" offset="0%"></stop>
            <stop stop-color="#F68B1F" offset="100%"></stop>
        </linearGradient>
    </defs>
    <g id="FInal" stroke="none" stroke-width="1" fill="none" fill-rule="evenodd">
        <g id="DesktopHD_Home_Final" transform="translate(-1003.000000, -532.000000)">
            <g id="Group-54" transform="translate(984.000000, 522.000000)">
                <g id="Group-11" transform="translate(19.000000, 10.000000)">
                    <path d="M62.4867264,6.17500922 C66.5275047,1.19928885 72.8923135,-1.01313096 78.9892398,0.438703764 C85.0861661,1.89053847 89.8980449,6.7644146 91.465356,13.0755651 C93.0326669,19.3867155 91.0939319,26.0822357 86.4386534,30.4355385 C85.9499558,30.9421599 85.2326678,31.1257478 84.574449,30.9126767 C83.9162303,30.6996055 83.4248816,30.1247711 83.2974525,29.4187042 C83.1700234,28.7126372 83.4273839,27.9909747 83.9663225,27.5431309 C87.5851521,24.1554367 89.0908665,18.9476314 87.8705419,14.0396314 C86.6502173,9.13163135 82.9073464,5.34186019 78.1655217,4.21300192 C73.423697,3.08414363 68.473632,4.80443869 65.3303257,8.67361483 C64.9114859,9.2352777 64.2313224,9.51291052 63.5579753,9.39706213 C62.8846283,9.28121373 62.3261257,8.79047023 62.1026456,8.11829718 C61.8791655,7.44612409 62.0265617,6.70036084 62.4867264,6.17500922 Z M69.7609091,9.7991443 C73.60555,7.05073199 78.8881794,7.49262305 82.2176485,10.8411484 C85.5471176,14.1896738 85.9344585,19.4502052 83.1310201,23.2457793 C82.7405,23.7553329 82.1198173,24.0369119 81.4770908,23.9961011 C80.8343643,23.9552903 80.2546907,23.5974931 79.9324382,23.0426811 C79.5469194,22.4017892 79.580973,21.5942559 80.0190945,20.9877486 C81.6986627,18.7094407 81.4649968,15.5544367 79.4679215,13.5456988 C77.4708462,11.5369609 74.3026343,11.270221 71.9947171,12.9165104 C71.4244843,13.3059528 70.6845891,13.3498211 70.0719091,13.0305136 C69.4746443,12.7390928 69.0721517,12.1601698 69.0087405,11.501311 C68.9453292,10.8424522 69.230084,10.1980487 69.7609091,9.7991443 Z M75,15 C76.1045695,15 77,15.8954305 77,17 C77,18.1045695 76.1045695,19 75,19 C73.8954305,19 73,18.1045695 73,17 C73,15.8954305 73.8954305,15 75,15 Z" id="Shape-2" fill="url(#linearGradient-1)"></path>
                    <path d="M75.9591923,20.6629107 C76.2369019,20.5978655 76.5285442,20.6645201 76.7525225,20.844226 C76.9765009,21.0239318 77.1087622,21.29739 77.112302,21.5880917 L77.112302,33.1595448 C77.0941565,34.72058 76.1600549,36.1181909 74.7423853,36.7054349 C73.8506221,37.1039891 37.6123578,36.9826069 3.74690387,36.9826069 C1.6830742,36.9690511 0.0132857717,35.2653231 0,33.1595448 L0,18.8230621 C0,16.7116432 1.677546,15 3.74690387,15 L70.6554499,15 C70.9403606,15.0036117 71.2083713,15.1385613 71.3844972,15.3670922 C71.5606233,15.595623 71.6259501,15.8931931 71.5622006,16.1765474 C71.3161146,17.4267657 71.6992335,18.7197118 72.5829615,19.6214022 C73.4666896,20.5230925 74.7338792,20.9139985 75.9591923,20.6629107 Z" id="Shape" fill="#E68619" fill-rule="nonzero"></path>
                    <path d="M16.0790869,30 L16.0790869,26.4375 L19.8876806,26.4375 L19.8876806,30 L21.6572119,30 L21.6572119,21.5449219 L19.8876806,21.5449219 L19.8876806,24.9785156 L16.0790869,24.9785156 L16.0790869,21.5449219 L14.3095556,21.5449219 L14.3095556,30 L16.0790869,30 Z M26.877915,30.140625 C29.3798681,30.140625 30.95604,28.4648438 30.95604,25.7753906 C30.95604,23.0800781 29.3798681,21.3984375 26.877915,21.3984375 C24.3701025,21.3984375 22.79979,23.0800781 22.79979,25.7753906 C22.79979,28.4648438 24.3701025,30.140625 26.877915,30.140625 Z M26.877915,28.6640625 C25.4892431,28.6640625 24.6044775,27.5449219 24.6044775,25.7753906 C24.6044775,24 25.4951025,22.875 26.877915,22.875 C28.2607275,22.875 29.1454931,24 29.1454931,25.7753906 C29.1454931,27.5449219 28.2607275,28.6640625 26.877915,28.6640625 Z M35.8837744,30 L35.8837744,23.0039062 L38.3329931,23.0039062 L38.3329931,21.5449219 L31.6708837,21.5449219 L31.6708837,23.0039062 L34.1142431,23.0039062 L34.1142431,30 L35.8837744,30 Z M44.7783056,30 L44.7783056,28.5351562 L41.08104,28.5351562 L41.08104,21.5449219 L39.3115087,21.5449219 L39.3115087,30 L44.7783056,30 Z M47.596665,30 L47.596665,21.5449219 L45.8271337,21.5449219 L45.8271337,30 L47.596665,30 Z M50.6962744,30 L50.6962744,24.4628906 L50.7490087,24.4628906 L54.7040869,30 L56.1689306,30 L56.1689306,21.5449219 L54.4755712,21.5449219 L54.4755712,27.0527344 L54.4286962,27.0527344 L50.4794775,21.5449219 L49.002915,21.5449219 L49.002915,30 L50.6962744,30 Z M63.1767431,30 L63.1767431,28.5351562 L59.3447119,28.5351562 L59.3447119,26.4023438 L62.9599462,26.4023438 L62.9599462,25.0429688 L59.3447119,25.0429688 L59.3447119,23.0039062 L63.1767431,23.0039062 L63.1767431,21.5449219 L57.5751806,21.5449219 L57.5751806,30 L63.1767431,30 Z" id="HOTLINE" fill="#FFFFFF" fill-rule="nonzero"></path>
                </g>
            </g>
        </g>
    </g>
</svg>