<svg xmlns="http://www.w3.org/2000/svg" width="16" height="16" viewBox="0 0 16 16">
    <g fill="none" fill-rule="evenodd">
        <g fill="#E68619">
            <g>
                <g>
                    <path d="M2.125 1.46c-.425 0-.694.332-.661.656.649 6.556 5.864 11.771 12.42 12.42.324.033.655-.236.655-.661v-2.6c0-.313-.2-.592-.499-.691l-2.527-.843c-.262-.087-.551-.02-.747.177l-.404.404c-.484.484-1.255.576-1.838.177-1.382-.945-2.186-1.744-3.044-3.035-.388-.584-.286-1.342.19-1.817l.412-.413c.196-.196.264-.485.176-.747L5.416 1.96c-.099-.299-.378-.5-.692-.5H2.125zm-2.115.8C-.117.98.937 0 2.125 0h2.6c.942 0 1.779.603 2.077 1.498l.842 2.526c.263.788.058 1.656-.529 2.242l-.407.407c.738 1.107 1.4 1.772 2.626 2.611l.4-.399c.586-.587 1.454-.792 2.242-.53l2.526.843c.895.298 1.498 1.135 1.498 2.078v2.599c0 1.188-.98 2.242-2.26 2.115C6.49 15.272.727 9.509.01 2.26zM10.158.73c0-.403.327-.73.73-.73C13.711 0 16 2.289 16 5.112c0 .403-.327.73-.73.73-.403 0-.73-.327-.73-.73 0-2.016-1.636-3.651-3.652-3.651-.403 0-.73-.328-.73-.73zm0 2.921c0-.403.327-.73.73-.73 1.21 0 2.191.98 2.191 2.19 0 .404-.327.731-.73.731-.403 0-.73-.327-.73-.73 0-.403-.328-.73-.73-.73-.404 0-.731-.328-.731-.73z" transform="translate(-881.000000, -45.000000) translate(881.000000, 28.000000) translate(0.000000, 17.000000)"/>
                </g>
            </g>
        </g>
    </g>
</svg>
